<svg width="20" height="18" viewBox="0 0 20 18" fill="none" xmlns="http://www.w3.org/2000/svg">
<g clip-path="url(#clip0_952_2558)">
<path d="M17.4443 7.95455C17.4443 13.3636 9.98935 18 9.98935 18C9.98935 18 2.53442 13.3636 2.53442 7.95455C2.53442 6.11009 3.31985 4.34117 4.71792 3.03694C6.11599 1.73271 8.01218 1 9.98935 1C11.9665 1 13.8627 1.73271 15.2608 3.03694C16.6588 4.34117 17.4443 6.11009 17.4443 7.95455Z" stroke="black" stroke-width="1.5" stroke-linecap="round" stroke-linejoin="round"/>
<path d="M10.5218 10C11.9923 10 13.1843 8.88071 13.1843 7.5C13.1843 6.11929 11.9923 5 10.5218 5C9.05141 5 7.85938 6.11929 7.85938 7.5C7.85938 8.88071 9.05141 10 10.5218 10Z" stroke="black" stroke-width="1.5" stroke-linecap="round" stroke-linejoin="round"/>
</g>
<defs>
<clipPath id="clip0_952_2558">
<rect width="19.1698" height="18" fill="white" transform="translate(0.404541)"/>
</clipPath>
</defs>
</svg>
